<svg xmlns="http://www.w3.org/2000/svg" xmlns:xlink="http://www.w3.org/1999/xlink" width="3000" zoomAndPan="magnify" viewBox="0 0 2250 2250.000011" height="3000" preserveAspectRatio="xMidYMid meet" version="1.0"><defs><clipPath id="e373781b0a"><path d="M 565 383 L 1578 383 L 1578 1675.222656 L 565 1675.222656 Z M 565 383 " clip-rule="nonzero"/></clipPath></defs><g clip-path="url(#e373781b0a)"><path fill="#ffffff" d="M 647.210938 1675.105469 C 645.878906 1675.105469 644.519531 1674.957031 643.1875 1674.632812 C 634.046875 1672.414062 628.425781 1663.214844 630.644531 1654.074219 C 631.5625 1650.34375 720.25 1278.796875 637.953125 1149.316406 C 588.875 1072.757812 563.761719 981.585938 565.386719 885.683594 C 566.894531 795.988281 591.242188 706.207031 635.792969 626.011719 C 721.460938 471.800781 865.199219 380.957031 1020.210938 383.085938 C 1177.023438 385.214844 1449.769531 446.152344 1514.699219 830.691406 C 1522.449219 876.601562 1505.027344 910.886719 1491.035156 938.425781 C 1474.585938 970.789062 1471.894531 980.492188 1485.472656 994.21875 L 1490.945312 999.71875 C 1537.183594 1046.253906 1589.574219 1098.96875 1575.667969 1149.492188 C 1567.414062 1179.488281 1537.597656 1201.707031 1484.675781 1217.265625 L 1484.675781 1422.179688 C 1484.675781 1431.585938 1477.042969 1439.21875 1467.636719 1439.21875 L 1170.605469 1439.21875 L 1170.605469 1658.066406 C 1170.605469 1667.472656 1162.972656 1675.105469 1153.566406 1675.105469 C 1144.15625 1675.105469 1136.523438 1667.472656 1136.523438 1658.066406 L 1136.523438 1422.179688 C 1136.523438 1412.773438 1144.15625 1405.140625 1153.566406 1405.140625 L 1450.597656 1405.140625 L 1450.597656 1204.25 C 1450.597656 1196.46875 1455.863281 1189.667969 1463.40625 1187.742188 C 1510.117188 1175.761719 1537.597656 1159.402344 1542.804688 1140.414062 C 1551.472656 1108.9375 1504.496094 1061.695312 1466.777344 1023.710938 L 1461.277344 1018.179688 C 1428.855469 985.492188 1445.746094 952.269531 1460.65625 922.957031 C 1473.609375 897.484375 1486.980469 871.15625 1481.09375 836.339844 C 1423.320312 494.226562 1198.320312 419.558594 1019.734375 417.132812 C 877.417969 415.242188 745.039062 499.460938 665.582031 642.546875 C 577.574219 800.960938 578.019531 992.679688 666.675781 1130.976562 C 756.722656 1272.703125 667.59375 1646.261719 663.777344 1662.089844 C 661.882812 1669.871094 654.902344 1675.105469 647.210938 1675.105469 Z M 647.210938 1675.105469 " fill-opacity="1" fill-rule="nonzero"/></g><path fill="#ffffff" d="M 1047.957031 1193.777344 C 864.195312 1193.777344 714.65625 1044.269531 714.65625 860.480469 C 714.65625 676.6875 864.195312 527.207031 1047.957031 527.207031 C 1231.71875 527.207031 1381.226562 676.714844 1381.226562 860.507812 C 1381.226562 1044.300781 1231.71875 1193.777344 1047.957031 1193.777344 Z M 1047.957031 561.285156 C 882.980469 561.285156 748.734375 695.5 748.734375 860.507812 C 748.734375 1025.488281 882.949219 1159.730469 1047.957031 1159.730469 C 1212.933594 1159.730469 1347.179688 1025.515625 1347.179688 860.507812 C 1347.179688 695.5 1212.933594 561.285156 1047.957031 561.285156 Z M 1047.957031 561.285156 " fill-opacity="1" fill-rule="nonzero"/><path fill="#ffffff" d="M 1047.957031 1109.792969 C 910.488281 1109.792969 798.640625 997.945312 798.640625 860.480469 C 798.640625 723.011719 910.488281 611.164062 1047.957031 611.164062 C 1185.425781 611.164062 1297.273438 723.011719 1297.273438 860.480469 C 1297.273438 997.976562 1185.425781 1109.792969 1047.957031 1109.792969 Z M 1047.957031 645.269531 C 929.273438 645.269531 832.71875 741.824219 832.71875 860.507812 C 832.71875 979.191406 929.273438 1075.746094 1047.957031 1075.746094 C 1166.640625 1075.746094 1263.195312 979.191406 1263.195312 860.507812 C 1263.195312 741.824219 1166.640625 645.269531 1047.957031 645.269531 Z M 1047.957031 645.269531 " fill-opacity="1" fill-rule="nonzero"/><path fill="#ffffff" d="M 1047.957031 712.183594 C 1038.550781 712.183594 1030.917969 704.550781 1030.917969 695.144531 L 1030.917969 482.570312 C 1030.917969 473.164062 1038.550781 465.53125 1047.957031 465.53125 C 1057.363281 465.53125 1064.996094 473.164062 1064.996094 482.570312 L 1064.996094 695.144531 C 1064.996094 704.550781 1057.363281 712.183594 1047.957031 712.183594 Z M 1047.957031 712.183594 " fill-opacity="1" fill-rule="nonzero"/><path fill="#ffffff" d="M 1425.867188 877.546875 L 1213.289062 877.546875 C 1203.882812 877.546875 1196.25 869.914062 1196.25 860.507812 C 1196.25 851.101562 1203.882812 843.46875 1213.289062 843.46875 L 1425.867188 843.46875 C 1435.273438 843.46875 1442.90625 851.101562 1442.90625 860.507812 C 1442.90625 869.914062 1435.300781 877.546875 1425.867188 877.546875 Z M 1425.867188 877.546875 " fill-opacity="1" fill-rule="nonzero"/><path fill="#ffffff" d="M 1047.957031 1255.457031 C 1038.550781 1255.457031 1030.917969 1247.824219 1030.917969 1238.417969 L 1030.917969 1025.839844 C 1030.917969 1016.433594 1038.550781 1008.800781 1047.957031 1008.800781 C 1057.363281 1008.800781 1064.996094 1016.433594 1064.996094 1025.839844 L 1064.996094 1238.417969 C 1064.996094 1247.824219 1057.363281 1255.457031 1047.957031 1255.457031 Z M 1047.957031 1255.457031 " fill-opacity="1" fill-rule="nonzero"/><path fill="#ffffff" d="M 882.625 877.546875 L 670.019531 877.546875 C 660.613281 877.546875 652.980469 869.914062 652.980469 860.507812 C 652.980469 851.101562 660.613281 843.46875 670.019531 843.46875 L 882.59375 843.46875 C 892 843.46875 899.632812 851.101562 899.632812 860.507812 C 899.632812 869.914062 892.03125 877.546875 882.625 877.546875 Z M 882.625 877.546875 " fill-opacity="1" fill-rule="nonzero"/><path fill="#ffffff" d="M 1047.957031 955.082031 C 995.804688 955.082031 953.355469 912.660156 953.355469 860.480469 C 953.355469 830.601562 967.703125 802.144531 991.722656 784.394531 C 999.292969 778.804688 1009.945312 780.398438 1015.566406 787.972656 C 1021.15625 795.546875 1019.558594 806.226562 1011.984375 811.816406 C 996.601562 823.175781 987.433594 841.367188 987.433594 860.480469 C 987.433594 893.847656 1014.589844 921.003906 1047.957031 921.003906 C 1065.855469 921.003906 1082.714844 913.164062 1094.253906 899.46875 C 1100.316406 892.277344 1111.054688 891.332031 1118.273438 897.398438 C 1125.460938 903.460938 1126.410156 914.199219 1120.34375 921.417969 C 1102.300781 942.835938 1075.941406 955.082031 1047.957031 955.082031 Z M 1047.957031 955.082031 " fill-opacity="1" fill-rule="nonzero"/><path fill="#ffffff" d="M 1047.957031 877.546875 C 1043.609375 877.546875 1039.230469 875.890625 1035.917969 872.546875 C 1029.261719 865.890625 1029.261719 855.09375 1035.917969 848.4375 L 1398.769531 485.585938 C 1405.425781 478.929688 1416.222656 478.929688 1422.878906 485.585938 C 1429.535156 492.242188 1429.535156 503.039062 1422.878906 509.695312 L 1059.996094 872.546875 C 1056.683594 875.859375 1052.304688 877.546875 1047.957031 877.546875 Z M 1047.957031 877.546875 " fill-opacity="1" fill-rule="nonzero"/><path fill="#ffffff" d="M 1047.957031 877.546875 C 1043.492188 877.546875 1039.140625 875.800781 1035.917969 872.546875 C 1031.597656 868.230469 1029.941406 861.957031 1031.507812 856.101562 L 1062.007812 742.238281 C 1064.433594 733.15625 1073.78125 727.746094 1082.863281 730.199219 C 1091.945312 732.625 1097.359375 741.972656 1094.902344 751.054688 L 1072.035156 836.398438 L 1171.078125 809.863281 C 1180.160156 807.4375 1189.507812 812.820312 1191.933594 821.902344 C 1194.359375 830.984375 1188.972656 840.332031 1179.890625 842.757812 L 1052.335938 876.925781 C 1050.914062 877.339844 1049.4375 877.546875 1047.957031 877.546875 Z M 1047.957031 877.546875 " fill-opacity="1" fill-rule="nonzero"/><path fill="#ffffff" d="M 1410.808594 514.695312 C 1406.3125 514.695312 1401.964844 512.921875 1398.769531 509.695312 C 1395.367188 506.292969 1393.5625 501.621094 1393.800781 496.796875 L 1399.625 379.269531 C 1400.101562 369.863281 1408.175781 362.613281 1417.496094 363.089844 C 1426.902344 363.5625 1434.148438 371.546875 1433.675781 380.957031 L 1428.765625 479.671875 L 1527.480469 474.761719 C 1536.796875 474.285156 1544.875 481.535156 1545.347656 490.941406 C 1545.820312 500.347656 1538.574219 508.335938 1529.167969 508.808594 L 1411.667969 514.636719 C 1411.371094 514.664062 1411.105469 514.695312 1410.808594 514.695312 Z M 1410.808594 514.695312 " fill-opacity="1" fill-rule="nonzero"/><path fill="#ffffff" d="M 1347.949219 577.527344 C 1343.449219 577.527344 1339.101562 575.753906 1335.90625 572.527344 C 1332.503906 569.125 1330.699219 564.453125 1330.9375 559.628906 L 1336.765625 442.132812 C 1337.238281 432.722656 1345.316406 425.507812 1354.632812 425.949219 C 1364.039062 426.421875 1371.289062 434.410156 1370.8125 443.816406 L 1365.902344 542.53125 L 1464.617188 537.621094 C 1473.90625 537.148438 1482.011719 544.394531 1482.484375 553.804688 C 1482.960938 563.210938 1475.710938 571.195312 1466.304688 571.671875 L 1348.804688 577.496094 C 1348.507812 577.527344 1348.242188 577.527344 1347.949219 577.527344 Z M 1347.949219 577.527344 " fill-opacity="1" fill-rule="nonzero"/></svg>