<svg xmlns="http://www.w3.org/2000/svg" xmlns:xlink="http://www.w3.org/1999/xlink" width="3000" zoomAndPan="magnify" viewBox="0 0 2250 2250.000011" height="3000" preserveAspectRatio="xMidYMid meet" version="1.0"><defs><clipPath id="d5895b4d3a"><path d="M 685 521 L 1498 521 L 1498 1368.949219 L 685 1368.949219 Z M 685 521 " clip-rule="nonzero"/></clipPath></defs><g clip-path="url(#d5895b4d3a)"><path fill="#ffffff" d="M 1485.320312 875.164062 L 1119.136719 532.507812 C 1118.21875 531.648438 1117.261719 530.835938 1116.265625 530.066406 C 1115.273438 529.296875 1114.242188 528.574219 1113.179688 527.902344 C 1112.117188 527.230469 1111.023438 526.609375 1109.902344 526.039062 C 1108.78125 525.46875 1107.632812 524.953125 1106.464844 524.492188 C 1105.292969 524.03125 1104.105469 523.625 1102.898438 523.273438 C 1101.6875 522.925781 1100.464844 522.632812 1099.230469 522.398438 C 1097.996094 522.164062 1096.75 521.984375 1095.5 521.867188 C 1094.246094 521.75 1092.992188 521.691406 1091.734375 521.691406 C 1090.476562 521.691406 1089.21875 521.75 1087.96875 521.867188 C 1086.714844 521.984375 1085.472656 522.164062 1084.234375 522.398438 C 1083 522.632812 1081.777344 522.925781 1080.570312 523.273438 C 1079.359375 523.625 1078.171875 524.03125 1077 524.492188 C 1075.832031 524.953125 1074.6875 525.46875 1073.5625 526.039062 C 1072.441406 526.609375 1071.351562 527.230469 1070.285156 527.902344 C 1069.222656 528.574219 1068.195312 529.296875 1067.199219 530.066406 C 1066.203125 530.835938 1065.246094 531.648438 1064.328125 532.507812 L 698.144531 875.164062 C 696.683594 876.527344 695.332031 877.992188 694.09375 879.554688 C 692.851562 881.121094 691.734375 882.769531 690.738281 884.503906 C 689.746094 886.238281 688.886719 888.035156 688.160156 889.894531 C 687.433594 891.757812 686.851562 893.664062 686.410156 895.613281 C 685.972656 897.558594 685.679688 899.53125 685.53125 901.523438 C 685.386719 903.515625 685.390625 905.507812 685.542969 907.5 C 685.695312 909.492188 685.996094 911.460938 686.445312 913.410156 C 686.890625 915.355469 687.480469 917.261719 688.214844 919.117188 C 688.945312 920.976562 689.8125 922.773438 690.816406 924.5 C 691.816406 926.230469 692.941406 927.875 694.1875 929.4375 C 695.433594 930.996094 696.789062 932.457031 698.253906 933.8125 C 699.722656 935.171875 701.28125 936.414062 702.929688 937.539062 C 704.582031 938.664062 706.308594 939.660156 708.109375 940.523438 C 709.910156 941.390625 711.761719 942.117188 713.671875 942.707031 C 715.582031 943.296875 717.523438 943.742188 719.5 944.039062 C 721.476562 944.335938 723.460938 944.484375 725.460938 944.488281 L 769.273438 944.488281 L 769.273438 1328.609375 C 769.269531 1329.921875 769.335938 1331.234375 769.460938 1332.542969 C 769.589844 1333.851562 769.78125 1335.148438 770.039062 1336.4375 C 770.292969 1337.726562 770.613281 1339 770.992188 1340.257812 C 771.375 1341.515625 771.816406 1342.75 772.320312 1343.964844 C 772.820312 1345.179688 773.382812 1346.367188 774 1347.523438 C 774.621094 1348.683594 775.292969 1349.808594 776.023438 1350.902344 C 776.753906 1351.996094 777.535156 1353.050781 778.371094 1354.066406 C 779.203125 1355.082031 780.085938 1356.054688 781.015625 1356.984375 C 781.941406 1357.914062 782.914062 1358.792969 783.929688 1359.628906 C 784.949219 1360.460938 786 1361.242188 787.09375 1361.972656 C 788.1875 1362.703125 789.3125 1363.378906 790.472656 1363.996094 C 791.632812 1364.617188 792.816406 1365.175781 794.03125 1365.679688 C 795.246094 1366.179688 796.484375 1366.625 797.742188 1367.003906 C 798.996094 1367.386719 800.269531 1367.703125 801.558594 1367.960938 C 802.847656 1368.214844 804.148438 1368.40625 805.457031 1368.535156 C 806.761719 1368.664062 808.074219 1368.726562 809.386719 1368.726562 L 1374.078125 1368.726562 C 1375.390625 1368.722656 1376.699219 1368.660156 1378.007812 1368.527344 C 1379.3125 1368.398438 1380.609375 1368.203125 1381.894531 1367.945312 C 1383.183594 1367.6875 1384.453125 1367.371094 1385.707031 1366.988281 C 1386.964844 1366.605469 1388.199219 1366.160156 1389.410156 1365.660156 C 1390.621094 1365.15625 1391.804688 1364.59375 1392.964844 1363.972656 C 1394.121094 1363.351562 1395.242188 1362.679688 1396.332031 1361.949219 C 1397.425781 1361.21875 1398.476562 1360.433594 1399.488281 1359.601562 C 1400.503906 1358.769531 1401.472656 1357.886719 1402.398438 1356.957031 C 1403.328125 1356.027344 1404.207031 1355.054688 1405.039062 1354.039062 C 1405.871094 1353.023438 1406.648438 1351.972656 1407.375 1350.878906 C 1408.105469 1349.789062 1408.777344 1348.664062 1409.394531 1347.503906 C 1410.011719 1346.347656 1410.570312 1345.160156 1411.070312 1343.949219 C 1411.574219 1342.734375 1412.011719 1341.5 1412.390625 1340.242188 C 1412.773438 1338.988281 1413.089844 1337.714844 1413.34375 1336.425781 C 1413.597656 1335.140625 1413.789062 1333.84375 1413.914062 1332.539062 C 1414.042969 1331.230469 1414.105469 1329.921875 1414.105469 1328.609375 L 1414.105469 944.488281 L 1457.917969 944.488281 C 1459.914062 944.484375 1461.898438 944.332031 1463.875 944.035156 C 1465.847656 943.734375 1467.789062 943.292969 1469.699219 942.703125 C 1471.605469 942.113281 1473.460938 941.386719 1475.257812 940.519531 C 1477.058594 939.652344 1478.785156 938.65625 1480.433594 937.535156 C 1482.085938 936.410156 1483.644531 935.167969 1485.109375 933.8125 C 1486.574219 932.457031 1487.933594 930.996094 1489.179688 929.4375 C 1490.425781 927.878906 1491.550781 926.234375 1492.554688 924.507812 C 1493.554688 922.78125 1494.425781 920.988281 1495.15625 919.128906 C 1495.890625 917.273438 1496.484375 915.371094 1496.933594 913.425781 C 1497.382812 911.480469 1497.6875 909.511719 1497.84375 907.519531 C 1498 905.527344 1498.007812 903.539062 1497.863281 901.546875 C 1497.722656 899.554688 1497.433594 897.582031 1497 895.632812 C 1496.5625 893.683594 1495.984375 891.78125 1495.261719 889.917969 C 1494.542969 888.054688 1493.6875 886.253906 1492.699219 884.519531 C 1491.707031 882.785156 1490.59375 881.132812 1489.359375 879.566406 C 1488.121094 877.996094 1486.777344 876.53125 1485.320312 875.164062 Z M 1478.378906 912.574219 C 1477.980469 913.597656 1477.507812 914.582031 1476.960938 915.535156 C 1476.410156 916.484375 1475.796875 917.390625 1475.109375 918.25 C 1474.425781 919.105469 1473.683594 919.910156 1472.875 920.65625 C 1472.070312 921.398438 1471.214844 922.082031 1470.304688 922.699219 C 1469.398438 923.3125 1468.449219 923.859375 1467.457031 924.332031 C 1466.46875 924.804688 1465.445312 925.199219 1464.398438 925.519531 C 1463.347656 925.835938 1462.277344 926.074219 1461.191406 926.230469 C 1460.105469 926.390625 1459.011719 926.464844 1457.917969 926.457031 L 1396.074219 926.457031 L 1396.074219 1328.609375 C 1396.074219 1329.332031 1396.042969 1330.050781 1395.972656 1330.769531 C 1395.902344 1331.488281 1395.796875 1332.203125 1395.660156 1332.910156 C 1395.519531 1333.617188 1395.347656 1334.316406 1395.136719 1335.007812 C 1394.929688 1335.699219 1394.6875 1336.378906 1394.414062 1337.046875 C 1394.136719 1337.714844 1393.832031 1338.367188 1393.492188 1339.003906 C 1393.152344 1339.640625 1392.785156 1340.261719 1392.382812 1340.859375 C 1391.984375 1341.460938 1391.554688 1342.042969 1391.097656 1342.601562 C 1390.640625 1343.160156 1390.160156 1343.695312 1389.648438 1344.207031 C 1389.140625 1344.71875 1388.605469 1345.203125 1388.050781 1345.664062 C 1387.492188 1346.121094 1386.914062 1346.550781 1386.316406 1346.953125 C 1385.714844 1347.355469 1385.097656 1347.730469 1384.460938 1348.070312 C 1383.828125 1348.410156 1383.175781 1348.722656 1382.507812 1349 C 1381.84375 1349.277344 1381.164062 1349.519531 1380.472656 1349.730469 C 1379.785156 1349.941406 1379.085938 1350.121094 1378.378906 1350.261719 C 1377.667969 1350.40625 1376.957031 1350.511719 1376.238281 1350.585938 C 1375.519531 1350.65625 1374.800781 1350.695312 1374.078125 1350.695312 L 809.386719 1350.695312 C 808.664062 1350.695312 807.945312 1350.65625 807.226562 1350.585938 C 806.503906 1350.515625 805.792969 1350.40625 805.082031 1350.265625 C 804.375 1350.125 803.671875 1349.945312 802.980469 1349.738281 C 802.289062 1349.527344 801.609375 1349.28125 800.941406 1349.003906 C 800.273438 1348.726562 799.621094 1348.417969 798.984375 1348.078125 C 798.347656 1347.734375 797.726562 1347.363281 797.125 1346.960938 C 796.523438 1346.558594 795.945312 1346.128906 795.386719 1345.671875 C 794.828125 1345.210938 794.292969 1344.726562 793.78125 1344.214844 C 793.269531 1343.703125 792.785156 1343.167969 792.328125 1342.609375 C 791.867188 1342.050781 791.4375 1341.472656 791.035156 1340.871094 C 790.632812 1340.269531 790.261719 1339.652344 789.921875 1339.011719 C 789.578125 1338.375 789.269531 1337.722656 788.992188 1337.054688 C 788.714844 1336.386719 788.472656 1335.707031 788.261719 1335.015625 C 788.050781 1334.324219 787.875 1333.625 787.730469 1332.914062 C 787.589844 1332.207031 787.484375 1331.492188 787.410156 1330.773438 C 787.339844 1330.054688 787.304688 1329.332031 787.300781 1328.609375 L 787.300781 926.457031 L 725.460938 926.457031 C 724.363281 926.457031 723.269531 926.375 722.183594 926.210938 C 721.09375 926.046875 720.027344 925.804688 718.976562 925.480469 C 717.925781 925.15625 716.90625 924.753906 715.917969 924.277344 C 714.925781 923.800781 713.976562 923.253906 713.070312 922.636719 C 712.160156 922.019531 711.300781 921.335938 710.496094 920.589844 C 709.691406 919.84375 708.945312 919.039062 708.257812 918.183594 C 707.570312 917.324219 706.953125 916.417969 706.402344 915.46875 C 705.851562 914.519531 705.371094 913.53125 704.96875 912.507812 C 704.566406 911.488281 704.242188 910.441406 703.992188 909.371094 C 703.746094 908.300781 703.582031 907.214844 703.496094 906.121094 C 703.410156 905.023438 703.40625 903.929688 703.484375 902.832031 C 703.566406 901.738281 703.726562 900.652344 703.964844 899.582031 C 704.207031 898.507812 704.527344 897.460938 704.925781 896.433594 C 705.320312 895.410156 705.792969 894.421875 706.339844 893.46875 C 706.886719 892.515625 707.5 891.605469 708.179688 890.746094 C 708.863281 889.882812 709.601562 889.074219 710.40625 888.324219 L 1076.589844 545.671875 C 1077.09375 545.199219 1077.621094 544.75 1078.171875 544.328125 C 1078.71875 543.902344 1079.289062 543.507812 1079.875 543.136719 C 1080.460938 542.765625 1081.0625 542.425781 1081.679688 542.113281 C 1082.296875 541.800781 1082.929688 541.515625 1083.574219 541.261719 C 1084.21875 541.007812 1084.875 540.785156 1085.539062 540.59375 C 1086.203125 540.398438 1086.878906 540.238281 1087.558594 540.109375 C 1088.238281 539.980469 1088.925781 539.882812 1089.613281 539.816406 C 1090.304688 539.753906 1090.996094 539.71875 1091.6875 539.71875 C 1092.382812 539.71875 1093.074219 539.753906 1093.761719 539.816406 C 1094.453125 539.882812 1095.136719 539.980469 1095.816406 540.109375 C 1096.5 540.238281 1097.171875 540.398438 1097.835938 540.59375 C 1098.503906 540.785156 1099.160156 541.007812 1099.804688 541.261719 C 1100.449219 541.515625 1101.078125 541.800781 1101.695312 542.113281 C 1102.316406 542.425781 1102.917969 542.765625 1103.503906 543.136719 C 1104.089844 543.507812 1104.65625 543.902344 1105.203125 544.328125 C 1105.753906 544.75 1106.28125 545.199219 1106.789062 545.671875 L 1472.972656 888.324219 C 1473.78125 889.074219 1474.53125 889.878906 1475.222656 890.738281 C 1475.910156 891.601562 1476.53125 892.511719 1477.082031 893.46875 C 1477.632812 894.425781 1478.109375 895.417969 1478.507812 896.445312 C 1478.910156 897.472656 1479.230469 898.527344 1479.46875 899.601562 C 1479.710938 900.679688 1479.867188 901.769531 1479.941406 902.871094 C 1480.015625 903.972656 1480.007812 905.074219 1479.914062 906.171875 C 1479.824219 907.273438 1479.648438 908.359375 1479.390625 909.433594 C 1479.132812 910.503906 1478.796875 911.550781 1478.378906 912.574219 Z M 1478.378906 912.574219 " fill-opacity="1" fill-rule="nonzero"/></g></svg>