<svg xmlns="http://www.w3.org/2000/svg" xmlns:xlink="http://www.w3.org/1999/xlink" width="3000" zoomAndPan="magnify" viewBox="0 0 2250 2250.000011" height="3000" preserveAspectRatio="xMidYMid meet" version="1.0"><defs><clipPath id="d44b50f324"><path d="M 662.238281 232 L 1600.820312 232 L 1600.820312 964.757812 L 662.238281 964.757812 Z M 662.238281 232 " clip-rule="nonzero"/></clipPath></defs><path fill="#ffffff" d="M 1057.328125 422.96875 L 868.945312 356.265625 C 861.613281 353.332031 852.820312 357.730469 850.621094 365.0625 C 847.6875 372.390625 852.085938 381.1875 859.417969 384.121094 L 1047.796875 450.824219 C 1055.128906 453.753906 1063.921875 449.355469 1066.121094 442.027344 C 1069.054688 433.964844 1064.65625 425.167969 1057.328125 422.96875 Z M 1057.328125 422.96875 " fill-opacity="1" fill-rule="nonzero"/><path fill="#ffffff" d="M 1057.328125 488.9375 L 868.945312 422.96875 C 861.613281 420.035156 852.820312 424.433594 850.621094 431.765625 C 847.6875 439.09375 852.085938 447.890625 859.417969 450.824219 L 1047.796875 517.527344 C 1055.128906 520.457031 1063.921875 516.058594 1066.121094 508.730469 C 1069.054688 499.933594 1064.65625 491.871094 1057.328125 488.9375 Z M 1057.328125 488.9375 " fill-opacity="1" fill-rule="nonzero"/><path fill="#ffffff" d="M 1057.328125 555.640625 L 868.945312 488.9375 C 861.613281 486.007812 852.820312 490.40625 850.621094 497.734375 C 847.6875 505.066406 852.085938 513.859375 859.417969 516.792969 C 859.417969 516.792969 1047.066406 582.761719 1047.796875 583.496094 C 1055.128906 585.695312 1063.921875 582.03125 1066.855469 574.699219 C 1069.054688 566.636719 1064.65625 557.839844 1057.328125 555.640625 Z M 1057.328125 555.640625 " fill-opacity="1" fill-rule="nonzero"/><path fill="#ffffff" d="M 1057.328125 621.613281 L 868.945312 554.910156 C 861.613281 551.976562 852.820312 556.375 850.621094 563.703125 C 847.6875 571.035156 852.085938 579.832031 859.417969 582.761719 L 1047.796875 649.464844 C 1055.128906 652.398438 1063.921875 648 1066.121094 640.671875 C 1069.054688 632.605469 1064.65625 624.542969 1057.328125 621.613281 Z M 1057.328125 621.613281 " fill-opacity="1" fill-rule="nonzero"/><path fill="#ffffff" d="M 1057.328125 688.316406 L 868.945312 621.613281 C 861.613281 618.679688 852.820312 623.078125 850.621094 630.40625 C 847.6875 637.738281 852.085938 646.535156 859.417969 649.464844 L 1047.796875 716.167969 C 1055.128906 719.101562 1063.921875 714.703125 1066.121094 707.375 C 1069.054688 699.308594 1064.65625 690.515625 1057.328125 688.316406 Z M 1057.328125 688.316406 " fill-opacity="1" fill-rule="nonzero"/><path fill="#ffffff" d="M 1057.328125 754.285156 L 868.945312 687.582031 C 861.613281 684.648438 852.820312 689.046875 850.621094 696.378906 C 847.6875 703.707031 852.085938 712.503906 859.417969 715.4375 L 1047.796875 782.140625 C 1055.128906 785.070312 1063.921875 780.671875 1066.121094 773.34375 C 1069.054688 765.28125 1064.65625 757.21875 1057.328125 754.285156 Z M 1057.328125 754.285156 " fill-opacity="1" fill-rule="nonzero"/><g clip-path="url(#d44b50f324)"><path fill="#ffffff" d="M 1556.5 334.273438 L 1115.96875 334.273438 L 840.359375 234.585938 C 811.769531 225.058594 779.519531 244.847656 779.519531 275.636719 L 779.519531 761.617188 C 779.519531 779.941406 791.246094 796.066406 808.105469 802.664062 L 1028.007812 877.429688 L 959.105469 877.429688 L 770.722656 818.058594 C 758.261719 814.390625 750.199219 802.664062 750.199219 790.203125 L 750.199219 334.273438 L 706.21875 334.273438 C 682.03125 334.273438 662.238281 354.066406 662.238281 378.253906 L 662.238281 862.035156 C 662.238281 886.226562 682.03125 906.015625 706.21875 906.015625 L 1052.195312 906.015625 C 1042.667969 914.078125 1034.605469 923.609375 1028.738281 934.605469 L 1028.007812 935.335938 L 948.109375 935.335938 C 940.046875 935.335938 933.449219 941.933594 933.449219 949.996094 C 933.449219 958.058594 940.046875 964.65625 948.109375 964.65625 L 1314.609375 964.65625 C 1322.671875 964.65625 1329.269531 958.058594 1329.269531 949.996094 C 1329.269531 941.933594 1322.671875 935.335938 1314.609375 935.335938 L 1234.714844 935.335938 L 1233.980469 934.605469 C 1227.382812 923.609375 1219.320312 914.078125 1210.523438 906.015625 L 1556.5 906.015625 C 1580.691406 906.015625 1600.480469 886.226562 1600.480469 862.035156 L 1600.480469 378.253906 C 1600.480469 354.066406 1580.691406 334.273438 1556.5 334.273438 Z M 818.367188 774.808594 C 812.503906 772.609375 808.839844 767.480469 808.839844 761.617188 C 808.839844 761.617188 808.839844 276.367188 808.839844 275.636719 C 808.839844 265.371094 820.566406 258.777344 830.097656 262.441406 L 1102.039062 360.664062 L 1102.039062 871.566406 Z M 1063.921875 936.070312 C 1080.78125 917.746094 1104.972656 906.75 1131.359375 906.75 C 1157.75 906.75 1181.9375 917.746094 1198.796875 936.070312 Z M 1512.519531 811.460938 L 1190 811.460938 C 1181.9375 811.460938 1175.339844 804.863281 1175.339844 796.800781 C 1175.339844 788.738281 1181.9375 782.140625 1190 782.140625 L 1512.519531 782.140625 C 1520.585938 782.140625 1527.179688 788.738281 1527.179688 796.800781 C 1527.179688 804.863281 1520.585938 811.460938 1512.519531 811.460938 Z M 1512.519531 752.820312 L 1190 752.820312 C 1181.9375 752.820312 1175.339844 746.222656 1175.339844 738.160156 C 1175.339844 730.097656 1181.9375 723.5 1190 723.5 L 1512.519531 723.5 C 1520.585938 723.5 1527.179688 730.097656 1527.179688 738.160156 C 1527.179688 746.222656 1520.585938 752.820312 1512.519531 752.820312 Z M 1512.519531 694.179688 L 1190 694.179688 C 1181.9375 694.179688 1175.339844 687.582031 1175.339844 679.519531 C 1175.339844 671.457031 1181.9375 664.859375 1190 664.859375 L 1512.519531 664.859375 C 1520.585938 664.859375 1527.179688 671.457031 1527.179688 679.519531 C 1527.179688 687.582031 1520.585938 694.179688 1512.519531 694.179688 Z M 1512.519531 635.539062 L 1190 635.539062 C 1181.9375 635.539062 1175.339844 628.941406 1175.339844 620.878906 C 1175.339844 612.816406 1181.9375 606.21875 1190 606.21875 L 1512.519531 606.21875 C 1520.585938 606.21875 1527.179688 612.816406 1527.179688 620.878906 C 1527.179688 628.941406 1520.585938 635.539062 1512.519531 635.539062 Z M 1512.519531 576.898438 L 1365.921875 576.898438 C 1357.859375 576.898438 1351.261719 570.300781 1351.261719 562.238281 C 1351.261719 554.175781 1357.859375 547.578125 1365.921875 547.578125 L 1512.519531 547.578125 C 1520.585938 547.578125 1527.179688 554.175781 1527.179688 562.238281 C 1527.179688 570.300781 1520.585938 576.898438 1512.519531 576.898438 Z M 1512.519531 518.257812 L 1365.921875 518.257812 C 1357.859375 518.257812 1351.261719 511.660156 1351.261719 503.597656 C 1351.261719 495.535156 1357.859375 488.9375 1365.921875 488.9375 L 1512.519531 488.9375 C 1520.585938 488.9375 1527.179688 495.535156 1527.179688 503.597656 C 1527.179688 511.660156 1520.585938 518.257812 1512.519531 518.257812 Z M 1512.519531 459.617188 L 1365.921875 459.617188 C 1357.859375 459.617188 1351.261719 453.019531 1351.261719 444.957031 C 1351.261719 436.894531 1357.859375 430.296875 1365.921875 430.296875 L 1512.519531 430.296875 C 1520.585938 430.296875 1527.179688 436.894531 1527.179688 444.957031 C 1527.179688 453.019531 1520.585938 459.617188 1512.519531 459.617188 Z M 1512.519531 459.617188 " fill-opacity="1" fill-rule="nonzero"/></g></svg>