<svg xmlns="http://www.w3.org/2000/svg" xmlns:xlink="http://www.w3.org/1999/xlink" width="3000" zoomAndPan="magnify" viewBox="0 0 2250 2250.000011" height="3000" preserveAspectRatio="xMidYMid meet" version="1.0"><defs><clipPath id="05af257d01"><path d="M 1662 959 L 1726.515625 959 L 1726.515625 984 L 1662 984 Z M 1662 959 " clip-rule="nonzero"/></clipPath><clipPath id="26269b0930"><path d="M 958 1542 L 1168 1542 L 1168 1702.105469 L 958 1702.105469 Z M 958 1542 " clip-rule="nonzero"/></clipPath><clipPath id="7a01aa2c99"><path d="M 523.300781 868 L 750 868 L 750 1094 L 523.300781 1094 Z M 523.300781 868 " clip-rule="nonzero"/></clipPath><clipPath id="ea6e21d482"><path d="M 1050 546.871094 L 1075 546.871094 L 1075 605 L 1050 605 Z M 1050 546.871094 " clip-rule="nonzero"/></clipPath><clipPath id="1a7737223a"><path d="M 523.300781 1321 L 778 1321 L 778 1569 L 523.300781 1569 Z M 523.300781 1321 " clip-rule="nonzero"/></clipPath></defs><path fill="#ffffff" d="M 1662.722656 974.820312 C 1662.722656 957.539062 1651.453125 942.851562 1635.882812 937.691406 L 1635.847656 870.082031 C 1635.847656 865.269531 1633 860.902344 1628.601562 858.941406 C 1624.199219 856.976562 1619.042969 857.800781 1615.464844 861.058594 L 1601.632812 873.625 C 1575.707031 897.113281 1543.863281 913.097656 1509.519531 919.839844 C 1508.636719 920 1507.8125 920.285156 1507.019531 920.632812 L 1428.015625 920.632812 C 1399.335938 920.632812 1375.976562 943.960938 1375.976562 972.667969 L 1375.976562 977.164062 C 1375.976562 1005.082031 1398.070312 1027.90625 1425.671875 1029.140625 L 1425.671875 1098.996094 C 1425.671875 1115.363281 1438.964844 1128.65625 1455.332031 1128.65625 L 1457.292969 1128.65625 C 1473.660156 1128.65625 1486.953125 1115.363281 1486.953125 1098.996094 L 1486.953125 1029.203125 L 1508.160156 1029.203125 C 1508.601562 1029.328125 1509.015625 1029.457031 1509.488281 1029.550781 C 1543.832031 1036.292969 1575.675781 1052.277344 1601.601562 1075.765625 L 1615.433594 1088.332031 C 1617.710938 1090.386719 1620.65625 1091.496094 1623.632812 1091.496094 C 1625.308594 1091.496094 1626.988281 1091.148438 1628.570312 1090.453125 C 1632.96875 1088.488281 1635.816406 1084.121094 1635.816406 1079.308594 L 1635.847656 1012.046875 C 1651.453125 1006.792969 1662.722656 992.074219 1662.722656 974.820312 Z M 1400.382812 977.101562 L 1400.382812 972.605469 C 1400.382812 957.347656 1412.789062 944.941406 1428.046875 944.941406 L 1499.707031 944.941406 L 1499.707031 971.625 C 1499.707031 972.003906 1499.742188 972.386719 1499.773438 972.734375 L 1499.773438 976.46875 C 1499.742188 976.847656 1499.707031 977.195312 1499.707031 977.574219 L 1499.707031 1004.703125 L 1428.046875 1004.703125 C 1412.789062 1004.765625 1400.382812 992.359375 1400.382812 977.101562 Z M 1462.609375 1098.933594 C 1462.609375 1101.847656 1460.238281 1104.21875 1457.324219 1104.21875 L 1455.363281 1104.21875 C 1452.449219 1104.21875 1450.078125 1101.847656 1450.078125 1098.933594 L 1450.078125 1029.234375 L 1462.644531 1029.234375 L 1462.644531 1098.933594 Z M 1524.113281 1007.742188 L 1524.113281 941.554688 C 1556.210938 933.671875 1586.121094 918.542969 1611.507812 897.335938 L 1611.539062 946.554688 C 1611.476562 947 1611.445312 947.472656 1611.445312 947.917969 L 1611.445312 1001.726562 C 1611.445312 1002.203125 1611.476562 1002.644531 1611.539062 1003.089844 L 1611.507812 1051.929688 C 1586.121094 1030.722656 1556.210938 1015.589844 1524.113281 1007.742188 Z M 1635.882812 982.925781 L 1635.882812 977.609375 C 1635.882812 977.101562 1635.847656 976.625 1635.785156 976.152344 L 1635.785156 973.082031 C 1635.847656 972.605469 1635.882812 972.101562 1635.882812 971.625 L 1635.882812 966.65625 C 1637.433594 968.996094 1638.316406 971.785156 1638.316406 974.789062 C 1638.351562 977.796875 1637.433594 980.613281 1635.882812 982.925781 Z M 1635.882812 982.925781 " fill-opacity="1" fill-rule="nonzero"/><g clip-path="url(#05af257d01)"><path fill="#ffffff" d="M 1714.316406 959.375 L 1675.066406 959.375 C 1668.324219 959.375 1662.882812 964.820312 1662.882812 971.5625 C 1662.882812 978.304688 1668.324219 983.75 1675.066406 983.75 L 1714.316406 983.75 C 1721.058594 983.75 1726.503906 978.304688 1726.503906 971.5625 C 1726.503906 964.820312 1721.058594 959.375 1714.316406 959.375 Z M 1714.316406 959.375 " fill-opacity="1" fill-rule="nonzero"/></g><path fill="#ffffff" d="M 1671.144531 956.558594 C 1673.707031 956.558594 1676.300781 955.765625 1678.488281 954.089844 L 1709.761719 930.382812 C 1715.109375 926.328125 1716.183594 918.667969 1712.101562 913.320312 C 1708.050781 907.96875 1700.390625 906.894531 1695.039062 910.976562 L 1663.765625 934.6875 C 1658.417969 938.738281 1657.34375 946.398438 1661.425781 951.746094 C 1663.832031 954.878906 1667.472656 956.558594 1671.144531 956.558594 Z M 1671.144531 956.558594 " fill-opacity="1" fill-rule="nonzero"/><path fill="#ffffff" d="M 1709.792969 1012.742188 L 1678.519531 989.035156 C 1673.136719 984.984375 1665.507812 986.027344 1661.457031 991.375 C 1657.40625 996.726562 1658.449219 1004.386719 1663.800781 1008.4375 L 1695.074219 1032.144531 C 1697.289062 1033.824219 1699.851562 1034.613281 1702.417969 1034.613281 C 1706.089844 1034.613281 1709.726562 1032.9375 1712.132812 1029.773438 C 1716.183594 1024.453125 1715.140625 1016.792969 1709.792969 1012.742188 Z M 1709.792969 1012.742188 " fill-opacity="1" fill-rule="nonzero"/><g clip-path="url(#26269b0930)"><path fill="#ffffff" d="M 1154.941406 1542.332031 L 970.53125 1542.332031 C 963.789062 1542.332031 958.34375 1547.777344 958.34375 1554.519531 L 958.34375 1689.996094 C 958.34375 1690.25 958.34375 1690.5 958.375 1690.722656 C 958.375 1690.785156 958.375 1690.851562 958.375 1690.914062 C 958.375 1691.101562 958.40625 1691.324219 958.4375 1691.515625 C 958.4375 1691.578125 958.4375 1691.609375 958.46875 1691.671875 C 958.535156 1692.210938 958.660156 1692.71875 958.785156 1693.222656 C 958.785156 1693.222656 958.785156 1693.253906 958.785156 1693.253906 C 959.007812 1694.046875 959.324219 1694.839844 959.703125 1695.566406 C 959.703125 1695.566406 959.703125 1695.597656 959.703125 1695.597656 C 959.703125 1695.597656 959.703125 1695.597656 959.703125 1695.628906 C 959.957031 1696.105469 960.242188 1696.546875 960.527344 1696.992188 C 960.558594 1697.023438 960.589844 1697.085938 960.621094 1697.117188 C 960.75 1697.308594 960.875 1697.464844 961.035156 1697.65625 C 961.066406 1697.6875 961.066406 1697.71875 961.097656 1697.71875 C 961.253906 1697.910156 961.414062 1698.097656 961.570312 1698.257812 C 961.636719 1698.320312 961.667969 1698.351562 961.730469 1698.414062 C 961.855469 1698.542969 961.984375 1698.699219 962.140625 1698.828125 C 962.171875 1698.859375 962.238281 1698.921875 962.269531 1698.953125 C 962.457031 1699.113281 962.617188 1699.269531 962.804688 1699.429688 C 962.839844 1699.460938 962.871094 1699.492188 962.902344 1699.492188 C 963.058594 1699.617188 963.25 1699.746094 963.40625 1699.871094 C 963.441406 1699.902344 963.503906 1699.933594 963.535156 1699.964844 C 963.945312 1700.25 964.390625 1700.535156 964.863281 1700.789062 C 964.863281 1700.789062 964.894531 1700.789062 964.894531 1700.820312 C 965.59375 1701.199219 966.351562 1701.484375 967.144531 1701.707031 C 967.175781 1701.707031 967.175781 1701.707031 967.207031 1701.707031 C 967.710938 1701.867188 968.25 1701.960938 968.757812 1702.023438 C 968.789062 1702.023438 968.851562 1702.023438 968.882812 1702.023438 C 969.105469 1702.054688 969.296875 1702.085938 969.515625 1702.085938 C 969.582031 1702.085938 969.644531 1702.085938 969.707031 1702.085938 C 969.960938 1702.117188 970.214844 1702.117188 970.464844 1702.117188 L 1154.878906 1702.117188 C 1161.621094 1702.117188 1167.066406 1696.675781 1167.066406 1689.933594 L 1167.066406 1554.519531 C 1167.128906 1547.777344 1161.683594 1542.332031 1154.941406 1542.332031 Z M 1142.753906 1566.707031 L 1142.753906 1631.4375 L 1113.570312 1610.355469 C 1108.632812 1606.777344 1101.828125 1607.410156 1097.617188 1611.8125 L 1074.921875 1635.613281 L 1046.246094 1591.046875 C 1044.058594 1587.628906 1040.324219 1585.539062 1036.273438 1585.445312 C 1032.222656 1585.351562 1028.390625 1587.28125 1026.050781 1590.574219 L 982.75 1651.695312 L 982.75 1566.675781 L 1142.753906 1566.675781 Z M 1035.480469 1619.410156 L 1062.386719 1661.222656 C 1062.515625 1661.445312 1062.640625 1661.632812 1062.765625 1661.855469 L 1073.054688 1677.808594 L 994.113281 1677.808594 Z M 1142.753906 1677.808594 L 1102.050781 1677.808594 L 1088.46875 1656.695312 L 1107.90625 1636.3125 L 1142.753906 1661.476562 Z M 1142.753906 1677.808594 " fill-opacity="1" fill-rule="nonzero"/></g><path fill="#ffffff" d="M 1098.347656 1591.648438 C 1098.347656 1592.316406 1098.28125 1592.980469 1098.148438 1593.636719 C 1098.019531 1594.292969 1097.824219 1594.929688 1097.570312 1595.550781 C 1097.3125 1596.167969 1097 1596.753906 1096.628906 1597.3125 C 1096.257812 1597.867188 1095.832031 1598.382812 1095.359375 1598.855469 C 1094.886719 1599.328125 1094.371094 1599.75 1093.816406 1600.125 C 1093.257812 1600.496094 1092.671875 1600.808594 1092.054688 1601.066406 C 1091.433594 1601.320312 1090.796875 1601.515625 1090.140625 1601.644531 C 1089.484375 1601.777344 1088.824219 1601.839844 1088.152344 1601.839844 C 1087.484375 1601.839844 1086.820312 1601.777344 1086.164062 1601.644531 C 1085.507812 1601.515625 1084.871094 1601.320312 1084.253906 1601.066406 C 1083.632812 1600.808594 1083.046875 1600.496094 1082.492188 1600.125 C 1081.933594 1599.75 1081.417969 1599.328125 1080.945312 1598.855469 C 1080.472656 1598.382812 1080.050781 1597.867188 1079.679688 1597.3125 C 1079.308594 1596.753906 1078.992188 1596.167969 1078.738281 1595.550781 C 1078.480469 1594.929688 1078.289062 1594.292969 1078.15625 1593.636719 C 1078.027344 1592.980469 1077.960938 1592.316406 1077.960938 1591.648438 C 1077.960938 1590.980469 1078.027344 1590.316406 1078.15625 1589.660156 C 1078.289062 1589.003906 1078.480469 1588.367188 1078.738281 1587.75 C 1078.992188 1587.128906 1079.308594 1586.542969 1079.679688 1585.984375 C 1080.050781 1585.429688 1080.472656 1584.914062 1080.945312 1584.441406 C 1081.417969 1583.96875 1081.933594 1583.546875 1082.492188 1583.175781 C 1083.046875 1582.800781 1083.632812 1582.488281 1084.253906 1582.230469 C 1084.871094 1581.976562 1085.507812 1581.78125 1086.164062 1581.652344 C 1086.820312 1581.523438 1087.484375 1581.457031 1088.152344 1581.457031 C 1088.824219 1581.457031 1089.484375 1581.523438 1090.140625 1581.652344 C 1090.796875 1581.78125 1091.433594 1581.976562 1092.054688 1582.230469 C 1092.671875 1582.488281 1093.257812 1582.800781 1093.816406 1583.175781 C 1094.371094 1583.546875 1094.886719 1583.96875 1095.359375 1584.441406 C 1095.832031 1584.914062 1096.257812 1585.429688 1096.628906 1585.984375 C 1097 1586.542969 1097.3125 1587.128906 1097.570312 1587.75 C 1097.824219 1588.367188 1098.019531 1589.003906 1098.148438 1589.660156 C 1098.28125 1590.316406 1098.347656 1590.980469 1098.347656 1591.648438 Z M 1098.347656 1591.648438 " fill-opacity="1" fill-rule="nonzero"/><g clip-path="url(#7a01aa2c99)"><path fill="#ffffff" d="M 556.539062 1060.855469 C 566.886719 1071.207031 578.980469 1079.371094 592.433594 1085.039062 C 606.359375 1090.925781 621.140625 1093.902344 636.398438 1093.902344 C 651.65625 1093.902344 666.4375 1090.925781 680.363281 1085.039062 C 693.816406 1079.339844 705.878906 1071.207031 716.257812 1060.855469 C 726.640625 1050.503906 734.777344 1038.414062 740.441406 1024.960938 C 746.328125 1011.035156 749.304688 996.25 749.304688 980.996094 C 749.304688 965.769531 746.328125 950.957031 740.441406 937.027344 C 736.515625 927.722656 731.421875 919.113281 725.21875 911.230469 C 726.609375 912.210938 728.191406 912.71875 729.808594 912.71875 C 732.148438 912.71875 734.460938 911.707031 736.011719 909.710938 C 739.683594 905.058594 743.511719 900.4375 747.40625 895.941406 C 750.253906 892.617188 749.875 887.648438 746.582031 884.769531 C 743.257812 881.917969 738.289062 882.300781 735.410156 885.589844 C 731.390625 890.246094 727.433594 895.054688 723.601562 899.867188 C 721.703125 902.242188 721.417969 905.40625 722.589844 908.003906 C 720.597656 905.628906 718.476562 903.347656 716.257812 901.132812 C 705.910156 890.78125 693.816406 882.617188 680.363281 876.949219 C 666.4375 871.0625 651.65625 868.085938 636.398438 868.085938 C 621.140625 868.085938 606.359375 871.0625 592.433594 876.949219 C 578.980469 882.648438 566.917969 890.78125 556.539062 901.132812 C 546.15625 911.484375 538.019531 923.574219 532.355469 937.027344 C 526.464844 950.957031 523.492188 965.738281 523.492188 980.996094 C 523.492188 996.21875 526.464844 1011.035156 532.355469 1024.960938 C 538.019531 1038.414062 546.15625 1050.503906 556.539062 1060.855469 Z M 573.757812 918.417969 C 590.46875 901.703125 612.722656 892.492188 636.367188 892.492188 C 660.011719 892.492188 682.265625 901.703125 698.976562 918.417969 C 715.691406 935.128906 724.902344 957.382812 724.902344 981.027344 C 724.902344 1004.671875 715.691406 1026.921875 698.976562 1043.636719 C 682.265625 1060.347656 660.011719 1069.558594 636.367188 1069.558594 C 612.722656 1069.558594 590.46875 1060.347656 573.757812 1043.636719 C 557.042969 1026.921875 547.832031 1004.671875 547.832031 981.027344 C 547.832031 957.382812 557.042969 935.160156 573.757812 918.417969 Z M 573.757812 918.417969 " fill-opacity="1" fill-rule="nonzero"/></g><path fill="#ffffff" d="M 592.273438 1045.628906 C 594.171875 1046.707031 596.261719 1047.277344 598.351562 1047.277344 C 600.441406 1047.277344 602.5625 1046.738281 604.429688 1045.628906 L 698.058594 991.566406 C 701.824219 989.382812 704.136719 985.363281 704.136719 981.027344 C 704.136719 976.691406 701.824219 972.636719 698.058594 970.484375 L 604.429688 916.421875 C 600.660156 914.238281 596.007812 914.238281 592.242188 916.421875 C 588.476562 918.605469 586.164062 922.625 586.164062 926.960938 L 586.164062 1035.089844 C 586.195312 1039.425781 588.507812 1043.445312 592.273438 1045.628906 Z M 610.570312 948.074219 L 667.640625 981.027344 L 610.570312 1013.976562 Z M 610.570312 948.074219 " fill-opacity="1" fill-rule="nonzero"/><path fill="#ffffff" d="M 1000.1875 756.160156 C 1006.140625 764.074219 1010.730469 772.78125 1013.863281 782.023438 C 1017.027344 791.328125 1018.609375 800.984375 1018.609375 810.699219 L 1018.609375 811.933594 C 1018.609375 818.675781 1024.054688 824.121094 1030.796875 824.121094 L 1093.722656 824.121094 C 1100.464844 824.121094 1105.910156 818.675781 1105.910156 811.933594 L 1105.910156 810.699219 C 1105.910156 800.984375 1107.492188 791.328125 1110.660156 782.054688 C 1113.792969 772.8125 1118.382812 764.136719 1124.300781 756.257812 C 1134.460938 742.742188 1139.84375 726.628906 1139.84375 709.664062 C 1139.84375 688.960938 1131.804688 669.496094 1117.179688 654.871094 C 1102.554688 640.214844 1083.121094 632.144531 1062.449219 632.082031 C 1062.386719 632.082031 1062.324219 632.082031 1062.292969 632.082031 C 1041.75 632.082031 1022.410156 639.992188 1007.816406 654.332031 C 993.195312 668.734375 984.996094 688.011719 984.710938 708.617188 C 984.488281 725.902344 989.839844 742.359375 1000.1875 756.160156 Z M 1009.082031 708.933594 C 1009.273438 694.785156 1014.875 681.554688 1024.910156 671.710938 C 1034.914062 661.867188 1048.175781 656.453125 1062.292969 656.453125 C 1062.324219 656.453125 1062.355469 656.453125 1062.417969 656.453125 C 1076.601562 656.484375 1089.925781 662.023438 1099.960938 672.058594 C 1109.992188 682.09375 1115.5 695.449219 1115.5 709.632812 C 1115.5 721.246094 1111.828125 732.296875 1104.867188 741.570312 C 1097.394531 751.507812 1091.570312 762.492188 1087.617188 774.203125 C 1084.796875 782.527344 1082.960938 791.074219 1082.109375 799.75 L 1042.476562 799.75 C 1041.625 791.074219 1039.789062 782.527344 1036.9375 774.171875 C 1032.980469 762.492188 1027.15625 751.507812 1019.6875 741.539062 C 1012.597656 732.074219 1008.925781 720.804688 1009.082031 708.933594 Z M 1009.082031 708.933594 " fill-opacity="1" fill-rule="nonzero"/><path fill="#ffffff" d="M 1106.132812 846.121094 C 1106.132812 839.378906 1100.6875 833.933594 1093.945312 833.933594 L 1030.671875 833.933594 C 1023.929688 833.933594 1018.484375 839.378906 1018.484375 846.121094 C 1018.484375 852.863281 1023.929688 858.304688 1030.671875 858.304688 L 1093.945312 858.304688 C 1100.65625 858.304688 1106.132812 852.863281 1106.132812 846.121094 Z M 1106.132812 846.121094 " fill-opacity="1" fill-rule="nonzero"/><path fill="#ffffff" d="M 1037.855469 867.167969 C 1031.113281 867.167969 1025.667969 872.613281 1025.667969 879.355469 C 1025.667969 886.097656 1031.113281 891.542969 1037.855469 891.542969 L 1042.191406 891.542969 C 1042.921875 897.019531 1051.53125 901.324219 1062.007812 901.324219 C 1072.515625 901.324219 1081.09375 897.019531 1081.824219 891.542969 L 1086.347656 891.542969 C 1093.089844 891.542969 1098.535156 886.097656 1098.535156 879.355469 C 1098.535156 872.613281 1093.089844 867.167969 1086.347656 867.167969 Z M 1037.855469 867.167969 " fill-opacity="1" fill-rule="nonzero"/><path fill="#ffffff" d="M 1163.011719 705.230469 C 1163.011719 711.972656 1168.457031 717.417969 1175.199219 717.417969 L 1208.910156 717.417969 C 1215.652344 717.417969 1221.097656 711.972656 1221.097656 705.230469 C 1221.097656 698.488281 1215.652344 693.046875 1208.910156 693.046875 L 1175.199219 693.046875 C 1168.488281 693.046875 1163.011719 698.488281 1163.011719 705.230469 Z M 1163.011719 705.230469 " fill-opacity="1" fill-rule="nonzero"/><path fill="#ffffff" d="M 916.59375 717.417969 L 950.304688 717.417969 C 957.046875 717.417969 962.488281 711.972656 962.488281 705.230469 C 962.488281 698.488281 957.046875 693.046875 950.304688 693.046875 L 916.59375 693.046875 C 909.851562 693.046875 904.40625 698.488281 904.40625 705.230469 C 904.40625 711.941406 909.882812 717.417969 916.59375 717.417969 Z M 916.59375 717.417969 " fill-opacity="1" fill-rule="nonzero"/><path fill="#ffffff" d="M 1133.671875 776.132812 C 1128.921875 780.882812 1128.921875 788.605469 1133.671875 793.355469 L 1157.503906 817.1875 C 1159.878906 819.5625 1163.011719 820.765625 1166.117188 820.765625 C 1169.25 820.765625 1172.351562 819.5625 1174.726562 817.1875 C 1179.472656 812.441406 1179.472656 804.71875 1174.726562 799.96875 L 1150.890625 776.132812 C 1146.140625 771.355469 1138.417969 771.355469 1133.671875 776.132812 Z M 1133.671875 776.132812 " fill-opacity="1" fill-rule="nonzero"/><path fill="#ffffff" d="M 974.613281 634.328125 C 976.988281 636.703125 980.121094 637.90625 983.222656 637.90625 C 986.324219 637.90625 989.457031 636.703125 991.832031 634.328125 C 996.582031 629.582031 996.582031 621.855469 991.832031 617.109375 L 967.996094 593.273438 C 963.25 588.527344 955.527344 588.527344 950.777344 593.273438 C 946.03125 598.023438 946.03125 605.746094 950.777344 610.492188 Z M 974.613281 634.328125 " fill-opacity="1" fill-rule="nonzero"/><g clip-path="url(#ea6e21d482)"><path fill="#ffffff" d="M 1062.765625 604.953125 C 1069.507812 604.953125 1074.953125 599.507812 1074.953125 592.765625 L 1074.953125 559.058594 C 1074.953125 552.316406 1069.507812 546.871094 1062.765625 546.871094 C 1056.023438 546.871094 1050.582031 552.316406 1050.582031 559.058594 L 1050.582031 592.765625 C 1050.582031 599.507812 1056.023438 604.953125 1062.765625 604.953125 Z M 1062.765625 604.953125 " fill-opacity="1" fill-rule="nonzero"/></g><path fill="#ffffff" d="M 1142.28125 637.90625 C 1145.414062 637.90625 1148.515625 636.703125 1150.890625 634.328125 L 1174.726562 610.492188 C 1179.472656 605.746094 1179.472656 598.023438 1174.726562 593.273438 C 1169.976562 588.527344 1162.253906 588.527344 1157.503906 593.273438 L 1133.671875 617.109375 C 1128.921875 621.855469 1128.921875 629.582031 1133.671875 634.328125 C 1136.042969 636.703125 1139.148438 637.90625 1142.28125 637.90625 Z M 1142.28125 637.90625 " fill-opacity="1" fill-rule="nonzero"/><path fill="#ffffff" d="M 959.417969 820.765625 C 962.554688 820.765625 965.65625 819.5625 968.03125 817.1875 L 991.863281 793.355469 C 996.613281 788.605469 996.613281 780.882812 991.863281 776.132812 C 987.117188 771.386719 979.394531 771.386719 974.644531 776.132812 L 950.808594 799.96875 C 946.0625 804.71875 946.0625 812.441406 950.808594 817.1875 C 953.183594 819.5625 956.285156 820.765625 959.417969 820.765625 Z M 959.417969 820.765625 " fill-opacity="1" fill-rule="nonzero"/><path fill="#ffffff" d="M 1031.144531 729.859375 L 1040.832031 736.1875 C 1044.882812 738.816406 1050.105469 738.816406 1054.15625 736.1875 L 1057.195312 734.195312 L 1060.234375 736.1875 C 1064.285156 738.816406 1069.507812 738.816406 1073.5625 736.1875 L 1076.601562 734.195312 L 1079.636719 736.1875 C 1081.695312 737.519531 1084.007812 738.183594 1086.285156 738.183594 C 1090.273438 738.183594 1094.167969 736.21875 1096.511719 732.644531 C 1100.179688 727.007812 1098.597656 719.445312 1092.964844 715.773438 L 1083.277344 709.441406 C 1079.226562 706.8125 1074.003906 706.8125 1069.953125 709.441406 L 1066.914062 711.433594 L 1063.875 709.441406 C 1059.824219 706.8125 1054.601562 706.8125 1050.550781 709.441406 L 1047.511719 711.433594 L 1044.472656 709.441406 C 1038.835938 705.769531 1031.273438 707.351562 1027.601562 712.988281 C 1023.929688 718.652344 1025.511719 726.1875 1031.144531 729.859375 Z M 1031.144531 729.859375 " fill-opacity="1" fill-rule="nonzero"/><path fill="#ffffff" d="M 1524.082031 1351.464844 L 1407.757812 1351.464844 C 1401.015625 1351.464844 1395.570312 1356.910156 1395.570312 1363.652344 L 1395.570312 1452.597656 C 1389.839844 1450.316406 1383.507812 1449.113281 1376.988281 1449.113281 C 1366.101562 1449.113281 1355.71875 1452.5 1347.773438 1458.640625 C 1339.035156 1465.414062 1334.035156 1475.039062 1334.035156 1485.105469 C 1334.035156 1495.167969 1339.035156 1504.824219 1347.773438 1511.597656 C 1355.71875 1517.738281 1366.070312 1521.125 1376.988281 1521.125 C 1387.910156 1521.125 1398.261719 1517.738281 1406.207031 1511.597656 C 1414.941406 1504.824219 1419.941406 1495.203125 1419.941406 1485.105469 L 1419.941406 1413.597656 L 1511.894531 1413.597656 L 1511.894531 1452.597656 C 1506.167969 1450.316406 1499.835938 1449.113281 1493.316406 1449.113281 C 1482.425781 1449.113281 1472.042969 1452.5 1464.097656 1458.640625 C 1455.363281 1465.414062 1450.363281 1475.039062 1450.363281 1485.105469 C 1450.363281 1495.167969 1455.363281 1504.824219 1464.097656 1511.597656 C 1472.042969 1517.738281 1482.394531 1521.125 1493.316406 1521.125 C 1504.234375 1521.125 1514.585938 1517.738281 1522.53125 1511.597656 C 1531.265625 1504.824219 1536.269531 1495.203125 1536.269531 1485.105469 L 1536.269531 1363.652344 C 1536.269531 1356.910156 1530.824219 1351.464844 1524.082031 1351.464844 Z M 1376.988281 1496.753906 C 1366.039062 1496.753906 1358.410156 1490.613281 1358.410156 1485.105469 C 1358.410156 1479.597656 1366.039062 1473.457031 1376.988281 1473.457031 C 1387.941406 1473.457031 1395.570312 1479.597656 1395.570312 1485.105469 C 1395.570312 1490.613281 1387.941406 1496.753906 1376.988281 1496.753906 Z M 1419.941406 1389.257812 L 1419.941406 1375.804688 L 1511.894531 1375.804688 L 1511.894531 1389.257812 Z M 1493.316406 1496.753906 C 1482.363281 1496.753906 1474.734375 1490.613281 1474.734375 1485.105469 C 1474.734375 1479.597656 1482.363281 1473.457031 1493.316406 1473.457031 C 1504.265625 1473.457031 1511.894531 1479.597656 1511.894531 1485.105469 C 1511.894531 1490.613281 1504.265625 1496.753906 1493.316406 1496.753906 Z M 1493.316406 1496.753906 " fill-opacity="1" fill-rule="nonzero"/><path fill="#ffffff" d="M 992.71875 1145.496094 L 1180.867188 1145.496094 C 1187.609375 1145.496094 1193.050781 1140.050781 1193.050781 1133.308594 C 1193.050781 1126.566406 1187.609375 1121.125 1180.867188 1121.125 L 992.71875 1121.125 C 985.976562 1121.125 980.53125 1126.566406 980.53125 1133.308594 C 980.53125 1140.050781 986.007812 1145.496094 992.71875 1145.496094 Z M 992.71875 1145.496094 " fill-opacity="1" fill-rule="nonzero"/><path fill="#ffffff" d="M 992.71875 1212.222656 L 1180.867188 1212.222656 C 1187.609375 1212.222656 1193.050781 1206.777344 1193.050781 1200.035156 C 1193.050781 1193.292969 1187.609375 1187.847656 1180.867188 1187.847656 L 992.71875 1187.847656 C 985.976562 1187.847656 980.53125 1193.292969 980.53125 1200.035156 C 980.53125 1206.777344 986.007812 1212.222656 992.71875 1212.222656 Z M 992.71875 1212.222656 " fill-opacity="1" fill-rule="nonzero"/><path fill="#ffffff" d="M 857.972656 1150.496094 C 833.535156 1140.84375 805.773438 1152.839844 796.121094 1177.308594 C 791.4375 1189.144531 791.65625 1202.09375 796.722656 1213.804688 C 801.785156 1225.484375 811.09375 1234.503906 822.929688 1239.191406 C 828.597656 1241.4375 834.546875 1242.546875 840.46875 1242.546875 C 846.890625 1242.546875 853.316406 1241.214844 859.394531 1238.589844 C 871.074219 1233.523438 880.097656 1224.21875 884.78125 1212.378906 C 894.4375 1187.910156 882.40625 1160.152344 857.972656 1150.496094 Z M 862.085938 1203.390625 C 859.808594 1209.183594 855.40625 1213.742188 849.679688 1216.210938 C 843.980469 1218.679688 837.648438 1218.773438 831.855469 1216.496094 C 826.066406 1214.214844 821.507812 1209.816406 819.039062 1204.085938 C 816.570312 1198.390625 816.472656 1192.058594 818.753906 1186.265625 C 822.359375 1177.117188 831.160156 1171.546875 840.433594 1171.546875 C 843.285156 1171.546875 846.164062 1172.085938 848.980469 1173.191406 C 860.945312 1177.878906 866.800781 1191.425781 862.085938 1203.390625 Z M 862.085938 1203.390625 " fill-opacity="1" fill-rule="nonzero"/><path fill="#ffffff" d="M 1370.277344 1142.140625 C 1370.847656 1141.316406 1371.292969 1140.464844 1371.640625 1139.578125 L 1399.558594 1099.347656 C 1403.386719 1093.808594 1402.027344 1086.210938 1396.488281 1082.378906 L 1353.882812 1052.816406 C 1351.222656 1050.980469 1347.964844 1050.25 1344.765625 1050.820312 C 1341.601562 1051.390625 1338.753906 1053.195312 1336.917969 1055.855469 L 1307.351562 1098.460938 L 1260.1875 1166.386719 L 1260.1875 1102.703125 C 1260.1875 1099.472656 1258.890625 1096.371094 1256.613281 1094.089844 L 1165.957031 1003.4375 C 1165.765625 1003.246094 1165.578125 1003.089844 1165.386719 1002.898438 C 1165.324219 1002.867188 1165.292969 1002.804688 1165.230469 1002.773438 C 1165.039062 1002.613281 1164.847656 1002.457031 1164.660156 1002.328125 C 1164.628906 1002.296875 1164.597656 1002.296875 1164.597656 1002.265625 C 1164.375 1002.105469 1164.183594 1001.980469 1163.964844 1001.824219 C 1163.898438 1001.789062 1163.835938 1001.726562 1163.773438 1001.695312 C 1163.582031 1001.570312 1163.363281 1001.441406 1163.171875 1001.347656 C 1163.140625 1001.316406 1163.109375 1001.316406 1163.078125 1001.285156 C 1162.855469 1001.15625 1162.632812 1001.0625 1162.378906 1000.9375 C 1162.316406 1000.90625 1162.253906 1000.871094 1162.160156 1000.839844 C 1161.9375 1000.746094 1161.714844 1000.652344 1161.492188 1000.585938 C 1161.460938 1000.585938 1161.429688 1000.554688 1161.429688 1000.554688 C 1161.175781 1000.460938 1160.957031 1000.398438 1160.703125 1000.335938 C 1160.640625 1000.304688 1160.574219 1000.304688 1160.480469 1000.269531 C 1160.257812 1000.207031 1160.039062 1000.144531 1159.785156 1000.113281 C 1159.753906 1000.113281 1159.722656 1000.113281 1159.691406 1000.082031 C 1159.4375 1000.019531 1159.183594 999.988281 1158.929688 999.953125 C 1158.867188 999.953125 1158.773438 999.921875 1158.707031 999.921875 C 1158.488281 999.890625 1158.265625 999.890625 1158.042969 999.859375 C 1158.011719 999.859375 1157.949219 999.859375 1157.917969 999.859375 C 1157.695312 999.859375 1157.503906 999.828125 1157.285156 999.828125 L 925.519531 999.828125 C 918.777344 999.828125 913.332031 1005.273438 913.332031 1012.015625 L 913.332031 1098.015625 C 909.851562 1095.960938 905.449219 1095.707031 901.714844 1097.574219 L 878.832031 1108.90625 L 871.140625 1105.867188 L 862.179688 1081.9375 C 860.410156 1077.15625 855.851562 1074.023438 850.753906 1074.023438 C 850.691406 1074.023438 850.628906 1074.023438 850.5625 1074.023438 L 826.316406 1074.402344 C 821.160156 1074.5 816.632812 1077.789062 814.953125 1082.695312 L 806.789062 1106.910156 L 799.191406 1110.203125 L 775.925781 1099.597656 C 771.242188 1097.445312 765.703125 1098.492188 762.125 1102.226562 L 745.253906 1119.636719 C 741.675781 1123.339844 740.789062 1128.910156 743.101562 1133.53125 L 754.433594 1156.417969 L 751.394531 1164.109375 L 727.464844 1173.066406 C 722.621094 1174.871094 719.457031 1179.523438 719.550781 1184.683594 L 719.929688 1208.929688 C 720.027344 1214.089844 723.316406 1218.617188 728.222656 1220.292969 L 752.4375 1228.460938 L 755.730469 1236.054688 L 745.128906 1259.320312 C 742.976562 1264.007812 744.019531 1269.546875 747.753906 1273.121094 L 765.164062 1289.992188 C 768.867188 1293.570312 774.4375 1294.457031 779.058594 1292.144531 L 801.945312 1280.8125 L 809.636719 1283.851562 L 818.59375 1307.78125 C 820.367188 1312.5625 824.925781 1315.695312 830.019531 1315.695312 C 830.085938 1315.695312 830.148438 1315.695312 830.210938 1315.695312 L 854.457031 1315.316406 C 859.617188 1315.222656 864.144531 1311.929688 865.820312 1307.023438 L 873.988281 1282.808594 L 881.585938 1279.515625 L 904.851562 1290.121094 C 907.601562 1291.355469 910.609375 1291.542969 913.363281 1290.722656 L 913.363281 1416.449219 C 913.363281 1423.191406 918.808594 1428.636719 925.550781 1428.636719 L 1247.972656 1428.636719 C 1254.714844 1428.636719 1260.15625 1423.191406 1260.15625 1416.449219 L 1260.15625 1300.722656 Z M 1209.101562 1301.484375 L 1214.449219 1305.1875 L 1209.003906 1307.308594 Z M 1237.082031 1291.226562 L 1214.226562 1275.339844 L 1320.425781 1122.359375 L 1343.277344 1138.246094 Z M 1349.988281 1079.785156 L 1372.558594 1095.453125 L 1356.890625 1118.019531 L 1334.320312 1102.351562 Z M 1214.007812 1086.589844 L 1169.503906 1086.589844 L 1169.503906 1041.671875 Z M 902.128906 1239.285156 L 912.066406 1259.320312 L 907.160156 1264.386719 L 886.808594 1255.113281 C 883.671875 1253.6875 880.066406 1253.65625 876.898438 1255.015625 L 859.363281 1262.613281 C 856.199219 1263.972656 853.761719 1266.632812 852.652344 1269.894531 L 845.5 1291.101562 L 838.441406 1291.226562 L 830.621094 1270.273438 C 829.417969 1267.042969 826.886719 1264.480469 823.691406 1263.214844 L 805.933594 1256.1875 C 802.734375 1254.921875 799.128906 1255.078125 796.058594 1256.597656 L 776.019531 1266.539062 L 770.957031 1261.632812 L 780.230469 1241.277344 C 781.65625 1238.144531 781.6875 1234.535156 780.324219 1231.371094 L 772.730469 1213.835938 C 771.367188 1210.671875 768.707031 1208.234375 765.449219 1207.125 L 744.242188 1199.972656 L 744.113281 1192.914062 L 765.070312 1185.09375 C 768.296875 1183.890625 770.859375 1181.359375 772.128906 1178.164062 L 779.15625 1160.40625 C 780.421875 1157.207031 780.261719 1153.597656 778.742188 1150.527344 L 768.804688 1130.492188 L 773.710938 1125.429688 L 794.0625 1134.703125 C 797.195312 1136.128906 800.804688 1136.160156 803.96875 1134.796875 L 821.507812 1127.199219 C 824.671875 1125.839844 827.109375 1123.179688 828.21875 1119.921875 L 835.371094 1098.714844 L 842.429688 1098.585938 L 850.246094 1119.539062 C 851.449219 1122.769531 853.984375 1125.332031 857.179688 1126.597656 L 874.9375 1133.625 C 874.9375 1133.625 874.9375 1133.625 874.96875 1133.625 C 875.09375 1133.691406 875.222656 1133.722656 875.347656 1133.785156 C 875.601562 1133.878906 875.824219 1133.941406 876.078125 1134.007812 C 876.234375 1134.070312 876.425781 1134.101562 876.613281 1134.132812 C 876.644531 1134.132812 876.644531 1134.132812 876.644531 1134.132812 C 876.804688 1134.164062 876.996094 1134.195312 877.152344 1134.226562 C 877.183594 1134.226562 877.183594 1134.226562 877.214844 1134.226562 C 877.375 1134.257812 877.5625 1134.292969 877.722656 1134.324219 C 877.753906 1134.324219 877.785156 1134.324219 877.816406 1134.324219 C 877.976562 1134.355469 878.132812 1134.355469 878.292969 1134.386719 C 878.324219 1134.386719 878.386719 1134.386719 878.417969 1134.386719 C 878.578125 1134.386719 878.703125 1134.417969 878.863281 1134.417969 C 878.925781 1134.417969 878.988281 1134.417969 879.019531 1134.417969 C 879.148438 1134.417969 879.273438 1134.417969 879.398438 1134.417969 C 879.464844 1134.417969 879.558594 1134.417969 879.621094 1134.417969 C 879.714844 1134.417969 879.84375 1134.417969 879.9375 1134.417969 C 880.035156 1134.417969 880.128906 1134.417969 880.222656 1134.417969 C 880.316406 1134.417969 880.382812 1134.417969 880.476562 1134.386719 C 880.601562 1134.386719 880.730469 1134.355469 880.824219 1134.355469 C 880.886719 1134.355469 880.953125 1134.324219 881.015625 1134.324219 C 881.140625 1134.292969 881.300781 1134.292969 881.425781 1134.257812 C 881.457031 1134.257812 881.519531 1134.226562 881.550781 1134.226562 C 881.710938 1134.195312 881.871094 1134.164062 881.996094 1134.132812 C 882.027344 1134.132812 882.058594 1134.132812 882.089844 1134.101562 C 882.25 1134.070312 882.40625 1134.039062 882.566406 1133.976562 C 882.597656 1133.976562 882.628906 1133.941406 882.660156 1133.941406 C 882.820312 1133.910156 882.976562 1133.847656 883.136719 1133.785156 C 883.167969 1133.785156 883.199219 1133.753906 883.230469 1133.753906 C 883.386719 1133.691406 883.546875 1133.65625 883.707031 1133.59375 C 883.769531 1133.5625 883.832031 1133.53125 883.894531 1133.53125 C 884.023438 1133.46875 884.179688 1133.4375 884.304688 1133.375 C 884.464844 1133.308594 884.65625 1133.214844 884.8125 1133.152344 L 904.847656 1123.210938 L 909.914062 1128.117188 L 900.640625 1148.472656 C 899.214844 1151.605469 899.183594 1155.214844 900.542969 1158.378906 L 908.140625 1175.914062 C 909.25 1178.480469 911.117188 1180.441406 913.363281 1181.707031 L 913.363281 1205.890625 C 911.339844 1207.21875 909.660156 1209.183594 908.710938 1211.589844 L 901.683594 1229.347656 C 900.449219 1232.605469 900.609375 1236.183594 902.128906 1239.285156 Z M 937.769531 1404.261719 L 937.769531 1266.917969 C 939.351562 1263.625 939.414062 1259.734375 937.769531 1256.347656 L 937.769531 1024.265625 L 1145.160156 1024.265625 L 1145.160156 1098.808594 C 1145.160156 1105.550781 1150.605469 1110.996094 1157.347656 1110.996094 L 1235.816406 1110.996094 L 1235.816406 1200.226562 C 1235.816406 1200.636719 1235.847656 1201.046875 1235.878906 1201.460938 L 1192.671875 1263.65625 C 1191.3125 1258.402344 1186.5625 1254.511719 1180.867188 1254.511719 L 992.71875 1254.511719 C 985.976562 1254.511719 980.53125 1259.953125 980.53125 1266.695312 C 980.53125 1273.4375 985.976562 1278.882812 992.71875 1278.882812 L 1180.867188 1278.882812 C 1182.351562 1278.882812 1183.746094 1278.628906 1185.074219 1278.125 C 1185.074219 1278.1875 1185.074219 1278.21875 1185.074219 1278.28125 L 1184.378906 1321.710938 C 1183.269531 1321.363281 1182.070312 1321.203125 1180.867188 1321.203125 L 992.71875 1321.203125 C 985.976562 1321.203125 980.53125 1326.648438 980.53125 1333.390625 C 980.53125 1340.132812 985.976562 1345.578125 992.71875 1345.578125 L 1180.867188 1345.578125 C 1186.4375 1345.578125 1191.121094 1341.839844 1192.578125 1336.777344 C 1193.84375 1337.21875 1195.171875 1337.441406 1196.535156 1337.441406 C 1198.023438 1337.441406 1199.542969 1337.15625 1200.964844 1336.617188 L 1235.816406 1322.976562 L 1235.816406 1404.261719 Z M 937.769531 1404.261719 " fill-opacity="1" fill-rule="nonzero"/><path fill="#ffffff" d="M 1188.558594 759.261719 C 1192.070312 759.261719 1195.269531 756.890625 1196.21875 753.34375 C 1197.324219 749.101562 1194.792969 744.796875 1190.550781 743.691406 C 1184.601562 742.140625 1178.523438 740.683594 1172.539062 739.386719 C 1168.269531 738.46875 1164.058594 741.15625 1163.140625 745.429688 C 1162.222656 749.703125 1164.914062 753.914062 1169.1875 754.832031 C 1174.976562 756.097656 1180.835938 757.492188 1186.5625 758.980469 C 1187.226562 759.167969 1187.894531 759.261719 1188.558594 759.261719 Z M 1188.558594 759.261719 " fill-opacity="1" fill-rule="nonzero"/><path fill="#ffffff" d="M 1284.371094 797.753906 C 1294.4375 803.230469 1304.410156 809.210938 1314.03125 815.480469 C 1315.359375 816.367188 1316.878906 816.777344 1318.335938 816.777344 C 1320.929688 816.777344 1323.464844 815.511719 1324.984375 813.199219 C 1327.386719 809.527344 1326.34375 804.621094 1322.671875 802.25 C 1312.703125 795.726562 1302.382812 789.554688 1291.9375 783.859375 C 1288.105469 781.769531 1283.296875 783.195312 1281.207031 787.023438 C 1279.117188 790.851562 1280.542969 795.664062 1284.371094 797.753906 Z M 1284.371094 797.753906 " fill-opacity="1" fill-rule="nonzero"/><path fill="#ffffff" d="M 1342.898438 836.054688 C 1351.953125 843.082031 1360.847656 850.582031 1369.328125 858.304688 C 1370.847656 859.699219 1372.746094 860.363281 1374.648438 860.363281 C 1376.800781 860.363281 1378.953125 859.507812 1380.503906 857.769531 C 1383.445312 854.539062 1383.226562 849.539062 1379.996094 846.59375 C 1371.195312 838.585938 1361.984375 830.832031 1352.617188 823.550781 C 1349.167969 820.859375 1344.195312 821.492188 1341.507812 824.945312 C 1338.816406 828.394531 1339.449219 833.363281 1342.898438 836.054688 Z M 1342.898438 836.054688 " fill-opacity="1" fill-rule="nonzero"/><path fill="#ffffff" d="M 1215.621094 759.261719 C 1214.164062 763.378906 1216.347656 767.90625 1220.464844 769.359375 C 1231.289062 773.160156 1242.082031 777.433594 1252.59375 782.085938 C 1253.636719 782.558594 1254.710938 782.78125 1255.789062 782.78125 C 1258.828125 782.78125 1261.707031 781.039062 1263.039062 778.066406 C 1264.808594 774.078125 1263.007812 769.394531 1259.019531 767.621094 C 1248.128906 762.808594 1236.957031 758.378906 1225.71875 754.421875 C 1221.570312 752.964844 1217.078125 755.117188 1215.621094 759.261719 Z M 1215.621094 759.261719 " fill-opacity="1" fill-rule="nonzero"/><path fill="#ffffff" d="M 1406.457031 896.542969 C 1408.007812 898.378906 1410.226562 899.296875 1412.472656 899.296875 C 1414.308594 899.296875 1416.144531 898.664062 1417.632812 897.398438 C 1420.957031 894.550781 1421.335938 889.546875 1418.488281 886.226562 C 1414.5 881.570312 1410.320312 876.917969 1406.140625 872.425781 C 1403.167969 869.226562 1398.164062 869.035156 1394.96875 872.042969 C 1391.769531 875.019531 1391.613281 880.019531 1394.589844 883.21875 C 1398.609375 887.585938 1402.597656 892.050781 1406.457031 896.542969 Z M 1406.457031 896.542969 " fill-opacity="1" fill-rule="nonzero"/><path fill="#ffffff" d="M 766.554688 871.824219 C 768.550781 871.824219 770.578125 871.0625 772.097656 869.542969 C 780.453125 861.34375 789.25 853.367188 798.242188 845.867188 C 801.597656 843.050781 802.039062 838.082031 799.253906 834.726562 C 796.4375 831.371094 791.46875 830.925781 788.113281 833.710938 C 778.804688 841.5 769.691406 849.761719 761.015625 858.242188 C 757.914062 861.3125 757.851562 866.316406 760.921875 869.449219 C 762.441406 871.03125 764.5 871.824219 766.554688 871.824219 Z M 766.554688 871.824219 " fill-opacity="1" fill-rule="nonzero"/><path fill="#ffffff" d="M 822.394531 825.292969 C 823.976562 825.292969 825.558594 824.816406 826.949219 823.835938 C 836.542969 817.09375 846.511719 810.667969 856.609375 804.71875 C 860.375 802.5 861.644531 797.660156 859.425781 793.890625 C 857.210938 790.125 852.367188 788.859375 848.601562 791.074219 C 838.15625 797.214844 827.804688 803.894531 817.867188 810.859375 C 814.289062 813.359375 813.433594 818.296875 815.933594 821.875 C 817.453125 824.121094 819.890625 825.292969 822.394531 825.292969 Z M 822.394531 825.292969 " fill-opacity="1" fill-rule="nonzero"/><path fill="#ffffff" d="M 885.097656 788.511719 C 886.238281 788.511719 887.410156 788.257812 888.515625 787.71875 C 899.058594 782.65625 909.976562 777.9375 920.898438 773.730469 C 924.980469 772.144531 927.007812 767.589844 925.457031 763.503906 C 923.875 759.421875 919.316406 757.394531 915.230469 758.945312 C 903.898438 763.285156 892.601562 768.15625 881.679688 773.445312 C 877.753906 775.34375 876.078125 780.058594 877.976562 784.015625 C 879.304688 786.832031 882.152344 788.511719 885.097656 788.511719 Z M 885.097656 788.511719 " fill-opacity="1" fill-rule="nonzero"/><path fill="#ffffff" d="M 955.179688 762.175781 C 960.875 760.53125 966.667969 758.980469 972.429688 757.554688 C 976.671875 756.507812 979.265625 752.238281 978.222656 747.996094 C 977.175781 743.753906 972.902344 741.15625 968.664062 742.203125 C 962.679688 743.660156 956.664062 745.273438 950.777344 747.015625 C 946.570312 748.25 944.164062 752.617188 945.398438 756.828125 C 946.410156 760.277344 949.574219 762.523438 952.992188 762.523438 C 953.691406 762.492188 954.449219 762.398438 955.179688 762.175781 Z M 955.179688 762.175781 " fill-opacity="1" fill-rule="nonzero"/><path fill="#ffffff" d="M 645.546875 1310.503906 C 646.589844 1313.921875 649.722656 1316.140625 653.109375 1316.140625 C 653.871094 1316.140625 654.628906 1316.042969 655.421875 1315.789062 C 659.601562 1314.523438 661.972656 1310.09375 660.707031 1305.914062 C 659 1300.25 657.351562 1294.457031 655.863281 1288.695312 C 654.757812 1284.453125 650.453125 1281.921875 646.210938 1283.03125 C 641.96875 1284.136719 639.4375 1288.441406 640.546875 1292.683594 C 642.097656 1298.601562 643.773438 1304.617188 645.546875 1310.503906 Z M 645.546875 1310.503906 " fill-opacity="1" fill-rule="nonzero"/><path fill="#ffffff" d="M 626.742188 1158.09375 C 626.394531 1165.214844 626.238281 1172.433594 626.238281 1179.585938 C 626.238281 1183.574219 626.300781 1187.625 626.394531 1191.582031 C 626.523438 1195.886719 630.035156 1199.273438 634.308594 1199.273438 C 634.371094 1199.273438 634.4375 1199.273438 634.53125 1199.273438 C 638.898438 1199.148438 642.347656 1195.539062 642.222656 1191.171875 C 642.128906 1187.34375 642.0625 1183.417969 642.0625 1179.585938 C 642.0625 1172.6875 642.222656 1165.722656 642.539062 1158.855469 C 642.730469 1154.484375 639.375 1150.78125 635.003906 1150.59375 C 630.667969 1150.371094 626.933594 1153.757812 626.742188 1158.09375 Z M 626.742188 1158.09375 " fill-opacity="1" fill-rule="nonzero"/><path fill="#ffffff" d="M 633.234375 1259.066406 C 633.929688 1262.898438 637.253906 1265.589844 641.019531 1265.589844 C 641.496094 1265.589844 641.9375 1265.558594 642.414062 1265.460938 C 646.71875 1264.703125 649.597656 1260.585938 648.804688 1256.28125 C 646.9375 1245.742188 645.417969 1234.949219 644.34375 1224.28125 C 643.898438 1219.945312 640.007812 1216.78125 635.671875 1217.222656 C 631.332031 1217.664062 628.167969 1221.558594 628.613281 1225.894531 C 629.71875 1236.972656 631.269531 1248.148438 633.234375 1259.066406 Z M 633.234375 1259.066406 " fill-opacity="1" fill-rule="nonzero"/><path fill="#ffffff" d="M 637.507812 1132.738281 C 641.429688 1132.738281 644.851562 1129.796875 645.355469 1125.808594 C 646.085938 1119.921875 646.9375 1113.96875 647.921875 1108.113281 C 648.648438 1103.808594 645.703125 1099.726562 641.398438 1099.03125 C 637.09375 1098.300781 633.011719 1101.246094 632.316406 1105.550781 C 631.300781 1111.628906 630.414062 1117.769531 629.65625 1123.878906 C 629.117188 1128.214844 632.1875 1132.171875 636.523438 1132.707031 C 636.875 1132.707031 637.191406 1132.738281 637.507812 1132.738281 Z M 637.507812 1132.738281 " fill-opacity="1" fill-rule="nonzero"/><path fill="#ffffff" d="M 947.421875 1594.65625 C 941.757812 1592.882812 936.058594 1590.984375 930.457031 1588.988281 C 926.34375 1587.535156 921.816406 1589.65625 920.328125 1593.769531 C 918.871094 1597.882812 920.992188 1602.410156 925.109375 1603.898438 C 930.898438 1605.957031 936.820312 1607.949219 942.675781 1609.753906 C 943.464844 1610.007812 944.257812 1610.101562 945.015625 1610.101562 C 948.40625 1610.101562 951.507812 1607.917969 952.582031 1604.53125 C 953.945312 1600.386719 951.601562 1595.953125 947.421875 1594.65625 Z M 947.421875 1594.65625 " fill-opacity="1" fill-rule="nonzero"/><path fill="#ffffff" d="M 831.921875 1538.789062 C 821.949219 1531.984375 812.167969 1524.671875 802.800781 1517.074219 C 799.414062 1514.320312 794.410156 1514.828125 791.65625 1518.214844 C 788.902344 1521.601562 789.410156 1526.601562 792.796875 1529.355469 C 802.515625 1537.238281 812.644531 1544.800781 822.996094 1551.859375 C 824.355469 1552.777344 825.90625 1553.253906 827.457031 1553.253906 C 829.988281 1553.253906 832.457031 1552.050781 834.007812 1549.804688 C 836.445312 1546.164062 835.527344 1541.226562 831.921875 1538.789062 Z M 831.921875 1538.789062 " fill-opacity="1" fill-rule="nonzero"/><path fill="#ffffff" d="M 895.953125 1574.9375 C 885.003906 1569.902344 874.113281 1564.363281 863.605469 1558.445312 C 859.808594 1556.292969 854.964844 1557.652344 852.8125 1561.453125 C 850.660156 1565.25 852.019531 1570.09375 855.820312 1572.246094 C 866.707031 1578.386719 878.007812 1584.148438 889.371094 1589.339844 C 890.449219 1589.8125 891.554688 1590.066406 892.664062 1590.066406 C 895.671875 1590.066406 898.519531 1588.355469 899.847656 1585.445312 C 901.652344 1581.457031 899.910156 1576.773438 895.953125 1574.9375 Z M 895.953125 1574.9375 " fill-opacity="1" fill-rule="nonzero"/><g clip-path="url(#1a7737223a)"><path fill="#ffffff" d="M 762.285156 1479.660156 C 759.878906 1477.128906 756.175781 1476.558594 753.167969 1477.980469 L 753.167969 1333.578125 C 753.167969 1326.835938 747.722656 1321.394531 740.980469 1321.394531 L 536.152344 1321.394531 C 529.410156 1321.394531 523.964844 1326.835938 523.964844 1333.578125 L 523.964844 1490.863281 C 523.964844 1497.605469 529.410156 1503.050781 536.152344 1503.050781 L 582.871094 1503.050781 L 582.871094 1556.039062 C 582.871094 1561.070312 585.941406 1565.566406 590.628906 1567.402344 C 592.050781 1567.972656 593.570312 1568.226562 595.058594 1568.226562 C 598.414062 1568.226562 601.675781 1566.832031 604.015625 1564.300781 L 660.359375 1503.082031 L 740.980469 1503.082031 C 747.027344 1503.082031 752.058594 1498.683594 753.007812 1492.890625 C 756.585938 1496.5625 760.226562 1500.234375 763.898438 1503.78125 C 765.449219 1505.265625 767.410156 1505.996094 769.40625 1505.996094 C 771.460938 1505.996094 773.550781 1505.171875 775.101562 1503.589844 C 778.140625 1500.457031 778.046875 1495.421875 774.914062 1492.382812 C 770.609375 1488.207031 766.398438 1483.964844 762.285156 1479.660156 Z M 728.792969 1478.648438 L 655.011719 1478.648438 C 651.59375 1478.648438 648.363281 1480.070312 646.050781 1482.570312 L 607.246094 1524.765625 L 607.246094 1490.832031 C 607.246094 1484.089844 601.800781 1478.648438 595.058594 1478.648438 L 548.339844 1478.648438 L 548.339844 1345.734375 L 728.792969 1345.734375 Z M 728.792969 1478.648438 " fill-opacity="1" fill-rule="nonzero"/></g><path fill="#ffffff" d="M 1341.410156 1524.257812 C 1336.695312 1527.867188 1331.882812 1531.445312 1327.007812 1534.863281 C 1323.433594 1537.394531 1322.578125 1542.332031 1325.109375 1545.878906 C 1326.660156 1548.0625 1329.097656 1549.234375 1331.566406 1549.234375 C 1333.148438 1549.234375 1334.730469 1548.757812 1336.125 1547.777344 C 1341.15625 1544.230469 1346.160156 1540.527344 1351.035156 1536.792969 C 1354.484375 1534.136719 1355.148438 1529.164062 1352.488281 1525.683594 C 1349.832031 1522.203125 1344.894531 1521.601562 1341.410156 1524.257812 Z M 1341.410156 1524.257812 " fill-opacity="1" fill-rule="nonzero"/><path fill="#ffffff" d="M 1301.433594 1551.609375 C 1292.949219 1556.734375 1284.214844 1561.640625 1275.414062 1566.167969 C 1271.519531 1568.164062 1270 1572.941406 1271.996094 1576.835938 C 1273.386719 1579.558594 1276.171875 1581.140625 1279.023438 1581.140625 C 1280.257812 1581.140625 1281.492188 1580.855469 1282.632812 1580.253906 C 1291.746094 1575.570312 1300.800781 1570.472656 1309.597656 1565.1875 C 1313.335938 1562.90625 1314.539062 1558.066406 1312.257812 1554.328125 C 1310.042969 1550.5625 1305.199219 1549.359375 1301.433594 1551.609375 Z M 1301.433594 1551.609375 " fill-opacity="1" fill-rule="nonzero"/><path fill="#ffffff" d="M 1247.78125 1579.210938 C 1238.695312 1583.101562 1229.328125 1586.742188 1220.019531 1590.003906 C 1215.90625 1591.457031 1213.722656 1595.953125 1215.144531 1600.070312 C 1216.285156 1603.328125 1219.355469 1605.386719 1222.617188 1605.386719 C 1223.472656 1605.386719 1224.355469 1605.226562 1225.210938 1604.941406 C 1234.898438 1601.554688 1244.582031 1597.789062 1254.015625 1593.769531 C 1258.035156 1592.058594 1259.902344 1587.40625 1258.164062 1583.386719 C 1256.453125 1579.335938 1251.800781 1577.46875 1247.78125 1579.210938 Z M 1247.78125 1579.210938 " fill-opacity="1" fill-rule="nonzero"/><path fill="#ffffff" d="M 1190.804688 1599.054688 C 1185.074219 1600.605469 1179.25 1602.0625 1173.457031 1603.390625 C 1169.1875 1604.375 1166.527344 1608.613281 1167.507812 1612.855469 C 1168.332031 1616.527344 1171.589844 1619.027344 1175.230469 1619.027344 C 1175.800781 1619.027344 1176.402344 1618.964844 1177.003906 1618.839844 C 1183.019531 1617.476562 1189.0625 1615.957031 1194.984375 1614.34375 C 1199.191406 1613.203125 1201.695312 1608.835938 1200.554688 1604.625 C 1199.351562 1600.386719 1195.015625 1597.917969 1190.804688 1599.054688 Z M 1190.804688 1599.054688 " fill-opacity="1" fill-rule="nonzero"/><path fill="#ffffff" d="M 1520.789062 1104.09375 C 1520.0625 1099.789062 1515.980469 1096.878906 1511.671875 1097.605469 C 1507.367188 1098.332031 1504.457031 1102.417969 1505.183594 1106.722656 C 1506.167969 1112.578125 1507.050781 1118.527344 1507.78125 1124.414062 C 1508.285156 1128.402344 1511.707031 1131.347656 1515.628906 1131.347656 C 1515.945312 1131.347656 1516.296875 1131.316406 1516.644531 1131.285156 C 1520.980469 1130.746094 1524.050781 1126.789062 1523.511719 1122.453125 C 1522.722656 1116.34375 1521.804688 1110.171875 1520.789062 1104.09375 Z M 1520.789062 1104.09375 " fill-opacity="1" fill-rule="nonzero"/><path fill="#ffffff" d="M 1507.273438 1282.269531 C 1507.84375 1282.398438 1508.414062 1282.460938 1508.984375 1282.460938 C 1512.625 1282.460938 1515.882812 1279.925781 1516.707031 1276.222656 C 1519.398438 1263.847656 1521.613281 1251.21875 1523.257812 1238.621094 C 1523.828125 1234.285156 1520.757812 1230.328125 1516.453125 1229.757812 C 1512.117188 1229.1875 1508.160156 1232.257812 1507.589844 1236.5625 C 1506.007812 1248.6875 1503.886719 1260.902344 1501.257812 1272.835938 C 1500.308594 1277.109375 1503 1281.320312 1507.273438 1282.269531 Z M 1507.273438 1282.269531 " fill-opacity="1" fill-rule="nonzero"/><path fill="#ffffff" d="M 1518.414062 1207.1875 C 1518.542969 1207.1875 1518.636719 1207.1875 1518.765625 1207.1875 C 1522.972656 1207.1875 1526.488281 1203.863281 1526.675781 1199.625 C 1526.960938 1192.976562 1527.121094 1186.265625 1527.121094 1179.585938 C 1527.121094 1173.574219 1526.992188 1167.464844 1526.773438 1161.449219 C 1526.613281 1157.082031 1522.910156 1153.664062 1518.542969 1153.851562 C 1514.175781 1154.011719 1510.789062 1157.714844 1510.945312 1162.082031 C 1511.167969 1167.875 1511.292969 1173.761719 1511.292969 1179.585938 C 1511.292969 1186.011719 1511.167969 1192.53125 1510.882812 1198.925781 C 1510.660156 1203.296875 1514.046875 1207 1518.414062 1207.1875 Z M 1518.414062 1207.1875 " fill-opacity="1" fill-rule="nonzero"/><path fill="#ffffff" d="M 1491.574219 1309.363281 C 1489.800781 1315.03125 1487.902344 1320.730469 1485.875 1326.300781 C 1484.390625 1330.414062 1486.542969 1334.941406 1490.65625 1336.429688 C 1491.542969 1336.746094 1492.429688 1336.902344 1493.316406 1336.902344 C 1496.574219 1336.902344 1499.613281 1334.878906 1500.753906 1331.648438 C 1502.84375 1325.855469 1504.804688 1319.9375 1506.640625 1314.082031 C 1507.9375 1309.902344 1505.628906 1305.472656 1501.449219 1304.175781 C 1497.304688 1302.875 1492.871094 1305.1875 1491.574219 1309.363281 Z M 1491.574219 1309.363281 " fill-opacity="1" fill-rule="nonzero"/><path fill="#ffffff" d="M 571.636719 1468.519531 C 577.964844 1470.828125 584.960938 1467.535156 587.242188 1461.238281 L 592.019531 1448.070312 L 619.433594 1448.070312 L 624.210938 1461.238281 C 626.015625 1466.175781 630.699219 1469.277344 635.671875 1469.277344 C 637.0625 1469.277344 638.457031 1469.054688 639.816406 1468.550781 C 645.355469 1466.554688 648.523438 1460.953125 647.730469 1455.351562 C 653.679688 1464.371094 663.90625 1470.320312 675.488281 1470.320312 C 680.808594 1470.320312 685.808594 1469.054688 690.273438 1466.839844 C 692.296875 1468.359375 694.832031 1469.246094 697.550781 1469.246094 C 704.292969 1469.246094 709.738281 1463.800781 709.738281 1457.058594 L 709.738281 1374.601562 C 709.738281 1367.859375 704.292969 1362.417969 697.550781 1362.417969 C 690.808594 1362.417969 685.367188 1367.859375 685.367188 1374.601562 L 685.367188 1405.242188 C 682.230469 1404.261719 678.910156 1403.753906 675.488281 1403.753906 C 657.132812 1403.753906 642.222656 1418.695312 642.222656 1437.023438 C 642.222656 1437.941406 642.253906 1438.859375 642.347656 1439.746094 L 617.183594 1370.457031 C 615.445312 1365.644531 610.855469 1362.417969 605.726562 1362.417969 C 600.597656 1362.417969 596.007812 1365.613281 594.269531 1370.457031 L 564.355469 1452.914062 C 562.042969 1459.242188 565.304688 1466.238281 571.636719 1468.519531 Z M 675.523438 1428.128906 C 680.429688 1428.128906 684.417969 1432.117188 684.417969 1437.023438 C 684.417969 1441.929688 680.429688 1445.917969 675.523438 1445.917969 C 670.617188 1445.917969 666.628906 1441.929688 666.628906 1437.023438 C 666.628906 1432.117188 670.617188 1428.128906 675.523438 1428.128906 Z M 610.601562 1423.695312 L 600.914062 1423.695312 L 605.757812 1410.339844 Z M 610.601562 1423.695312 " fill-opacity="1" fill-rule="nonzero"/></svg>